<svg height="295pt" preserveAspectRatio="xMidYMid meet" viewBox="0 0 400 295" width="400pt" xmlns="http://www.w3.org/2000/svg"><g transform="matrix(.1 0 0 -.1 0 295)"><path d="m3 2937c2-6 55-166 118-354 62-188 117-339 121-337 4 3 5-1 2-9-4-12 156-520 191-602 7-16 65-194 130-395s122-376 128-390 11-30 13-37c1-6 28-90 60-186 46-139 61-174 73-170 13 4 13 3 3-5-11-7 0-53 58-231l71-221 366 2 367 3 145 437c80 241 148 438 152 438s9-9 12-20 6-24 8-28c1-4 64-191 139-417l137-410 365-3 365-2 86 262c48 145 82 265 77 266-15 5-12 22 3 22 14 0 118 299 121 345 0 14 5 25 10 25 6 0 1 7-10 15-18 14-18 14 6 15 20 0 22 2 10 10-13 9-13 10 0 10 11 0 12 2 2 8-10 7-9 16 4 47 10 24 13 50 9 72-6 32-4 35 31 49 26 11 33 18 25 24-10 6-9 10 5 19 18 10 18 10-2 11-16 0-21 7-22 33-1 17-3 50-5 71-2 36 1 40 32 53 30 13 33 13 23 0-7-7-8-18-4-22 4-5 0-6-9-3-9 4-16 1-16-6s13-13 28-13c27 0 29 5 95 206 37 113 143 433 235 711s183 553 202 613l35 107h-497l-498-1-46-143c-48-147-55-180-37-191 6-3 10 4 10 18 0 18 5 23 20 22 11-1 26-7 32-13 7-7 20-12 29-12s22-6 28-14c9-11 7-15-8-19-24-6-19-35 11-67 17-18 18-23 6-37-11-14-10-15 10-9 16 6 24 3 29-11 4-10 11-22 17-26 6-5-5-6-25-4-31 5-37 2-34-11 2-12 10-16 30-14 19 2 25-1 19-9-4-7-3-9 2-6 28 17 54-52 29-77-8-8-15-19-15-25s-6-8-14-5c-11 4-14-3-12-30 2-20-1-36-6-36s-7-4-4-8c7-12-124-6-158 7-39 15-66 5-72-28-4-21-11-27-27-26-12 1-28 0-34-3-18-6-16-39 2-39 8 0 33-8 55-19 32-16 39-23 35-43-5-28-15-41-15-19 0 9-17 20-41 27-35 11-43 10-58-3-23-21-31-20-31 2-1 14-2 15-9 2-5-8-12-25-16-38-7-23-6-23 75-21 46 2 89 9 98 16 34 25 36 12 3-16-33-27-34-30-18-46 24-23 21-35-8-35-15 0-28-7-32-17-3-10-12-25-19-34-12-13-9-23 16-65l31-49-40 45c-38 44-40 44-59 26-12-10-21-28-21-39 0-12-1-33-1-47 0-23-2-24-14-7-15 20-46 23-46 5-1-7-9-2-20 10-11 13-25 22-32 20-14-5-18-78-4-78 4 0 6-9 3-20-4-18-2-20 16-14 12 3 28 11 35 17 14 11 32-5 32-30 0-7 9-18 20-25 13-8 20-24 20-44 0-29-3-32-40-38-22-3-40-11-40-16 0-17-67-12-74 5-3 9 1 18 8 21 29 11 27 35-5 46-23 8-27 13-17 19 8 5 8 9 2 9s-17-7-24-15c-7-9-19-14-27-11s-11 1-8-4c3-6-3-10-14-10-12 0-21-5-21-11s-7-9-15-5c-9 3-15 0-15-9 0-15-41-47-56-44-23 4-54-2-54-10 0-5 7-16 15-24s12-17 9-20 9-53 26-110c26-85 36-104 49-100s13 3 2-5c-12-9-4-43 48-209 34-109 81-256 103-328 22-71 43-136 47-143 7-12 78 197 377 1113 52 160 97 296 99 303 3 7 0 10-5 7-6-3-10 1-10 9s-10 20-22 27c-19 10-20 12-4 21 10 5 28 7 40 4 22-5 26 4 90 202 106 326 103 319 137 324 16 3 43 2 60 0 24-4 30-9 26-23-3-11 0-19 5-19 6 0 4-8-6-18-19-22-77-188-68-197 4-3 1-9-5-13s-27-60-47-124c-31-97-35-120-25-136s9-23-4-37c-11-11-15-25-11-41 7-27-12-58-32-50-9 3-22-22-40-76-15-45-27-89-28-97-1-9-6-25-12-36s-30-78-54-149c-35-106-40-130-29-138s11-9-2-5c-12 4-49-97-192-534l-178-539h-57-58l-52 168c-29 92-56 174-59 182s-7 20-8 25c-21 86-301 943-312 951-8 7-10 14-5 15 5 2-6 52-25 112-19 59-39 105-44 102s-3-15 3-25c17-27-2-45-37-36-29 7-43 32-27 48 8 8 15 8 26-1 12-10 16-8 21 8 3 11 1 29-4 40-7 12-7 21-1 23 5 2 7 13 4 25-4 13-11 20-17 16s-8 0-4 10c6 15-33 167-43 167s-40-121-34-133c4-7 3-8-2-4-5 5-20-26-35-75-14-46-113-354-218-686-106-331-189-607-186-612 3-6 2-10-3-10s-31-70-58-155l-49-155h-57-56l-92 276c-78 234-94 273-105 258-15-22-48-11-43 13 2 11 12 18 26 17 12 0 22 4 22 9s-121 377-270 827c-148 450-270 820-270 824 0 3 27 6 60 6 47 0 60-3 60-15 0-9 10-26 23-38 28-27 40-54 26-63-5-3-7-15-3-27 18-65 397-1214 402-1222 4-5 7-15 8-22 4-25 117-358 123-363 4-3 8-16 9-30s19-76 40-138l38-112 108 341c85 272 105 344 94 351-10 8-10 9 2 5s30 41 84 217c38 121 89 282 112 356 24 74 87 273 141 443 53 169 100 307 103 307 4 0 21-46 38-102 105-339 201-623 213-627 8-2 20-11 28-19 13-13 12-14-7-8-12 4-22 4-22-1 0-24 22-83 32-83 5 0 7-7 4-16s-3-21 1-27c4-7 9-19 10-28 4-28 22-65 22-48 1 9 8 19 16 23 8 3 15 13 15 21 0 9-4 13-10 10-9-6-14 8-11 28 0 4-5 7-11 7-7 1 2 7 20 15 30 13 44 35 21 35-5 0-8 4-5 9 4 5 0 12-6 15-7 3-4 4 7 3 14-1 21 5 23 21 2 12 8 20 13 17 5-4 20 4 33 17s34 31 47 41c13 9 19 17 13 17-5 0-15-5-22-12-9-9-12-8-12 4 0 9 8 18 17 20 10 2 23 23 32 53 14 42 20 50 44 53 15 2 27-2 27-8s8-10 18-8c9 1 23-1 30-5 6-5 12-5 12 0-1 21-61 197-72 211-7 8-12 17-10 19 1 1 2 4 1 6 0 1-2 11-3 22-2 11-20 73-41 137-36 108-49 128-67 103-4-6-16 0-29 13-26 29-18 39 17 23 15-6 28-10 30-8 8 7-18 67-26 62-5-3-7 4-5 15s-1 20-7 20c-5 0-8 6-5 14 7 18-23 116-35 116-5 0-7 4-4 9 3 4-8 48-24 97l-30 90-322-1h-321l-48-145c-108-331-272-827-281-850-12-30-4-50-209 567l-143 433h-499c-391 0-498-3-494-13zm3107-57c0-5-4-10-10-10-5 0-10 5-10 10 0 6 5 10 10 10 6 0 10-4 10-10zm-2460-35c0-8-4-15-9-15-13 0-22 16-14 24 11 11 23 6 23-9zm264 6c8-12-21-34-34-26-17 11-11 35 9 35 11 0 22-4 25-9zm936-26c0-8-7-15-15-15s-15 7-15 15 7 15 15 15 15-7 15-15zm237-37c-3-8-6-5-6 6-1 11 2 17 5 13 3-3 4-12 1-19zm163-138c0-5-5-10-11-10-5 0-7 5-4 10 3 6 8 10 11 10 2 0 4-4 4-10zm1440-50c0-5-7-10-16-10-8 0-12 5-9 10 3 6 10 10 16 10 5 0 9-4 9-10zm120-10c0-5-7-10-16-10-8 0-12 5-9 10 3 6 10 10 16 10 5 0 9-4 9-10zm-1640-10c0-5-4-10-10-10-5 0-10 5-10 10 0 6 5 10 10 10 6 0 10-4 10-10zm58-19c-2-9-13-17-26-19-16-3-22 2-22 16 0 11 6 22 13 25 20 7 38-4 35-22zm1387-41c3-6-1-7-9-4-18 7-21 14-7 14 6 0 13-4 16-10zm-1465-10c0-5-4-10-10-10-5 0-10 5-10 10 0 6 5 10 10 10 6 0 10-4 10-10zm110-10c0-5-4-10-10-10-5 0-10 5-10 10 0 6 5 10 10 10 6 0 10-4 10-10zm1570 0c0-5-4-10-10-10-5 0-10 5-10 10 0 6 5 10 10 10 6 0 10-4 10-10zm-190-15c0-8-4-15-10-15-5 0-10 7-10 15s5 15 10 15c6 0 10-7 10-15zm-440-105c0-5-4-10-10-10-5 0-10 5-10 10 0 6 5 10 10 10 6 0 10-4 10-10zm-2250-119c0-6-4-13-10-16-5-3-10 1-10 9 0 9 5 16 10 16 6 0 10-4 10-9zm778-42c-2-6-8-10-13-10s-11 4-13 10 4 11 13 11 15-5 13-11zm522-9c0-5-4-10-10-10-5 0-10 5-10 10 0 6 5 10 10 10 6 0 10-4 10-10zm757-30c-2-10-1-24 4-31 11-18-11-31-26-15-14 14-14 58 0 68s27-2 22-22zm-1307 10c0-5-4-10-10-10-5 0-10 5-10 10 0 6 5 10 10 10 6 0 10-4 10-10zm1180 6c0-11-19-15-25-6-3 5 1 10 9 10 9 0 16-2 16-4zm-2230-36c0-5-4-10-10-10-5 0-10 5-10 10 0 6 5 10 10 10 6 0 10-4 10-10zm2790-15c0-8-4-15-10-15-5 0-10 7-10 15s5 15 10 15c6 0 10-7 10-15zm-1200-15c0-5-5-10-11-10-5 0-7 5-4 10 3 6 8 10 11 10 2 0 4-4 4-10zm-445-90c-5-8-11-8-17-2s-7 16-3 22c5 8 11 8 17 2s7-16 3-22zm415-10c0-5-4-10-10-10-5 0-10 5-10 10 0 6 5 10 10 10 6 0 10-4 10-10zm68-59c-16-6-31 16-24 36 7 16 9 16 21-7 9-16 10-26 3-29zm45-30c3-14 1-18-9-14-15 6-18 16-7 26 9 10 10 9 16-12zm75 2c-2-10 3-18 10-18 6 0 12-4 12-10 0-9-8-10-40-6-6 1-5 11 2 26 13 29 20 32 16 8zm1052-3c0-5-2-10-4-10-3 0-8 5-11 10-3 6-1 10 4 10 6 0 11-4 11-10zm-1180-40c0-5-5-10-11-10-5 0-7 5-4 10 3 6 8 10 11 10 2 0 4-4 4-10zm640 0c0-5-4-10-10-10-5 0-10 5-10 10 0 6 5 10 10 10 6 0 10-4 10-10zm-1520-20c0-5-4-10-10-10-5 0-10 5-10 10 0 6 5 10 10 10 6 0 10-4 10-10zm950-10c0-5-7-10-16-10-8 0-12 5-9 10 3 6 10 10 16 10 5 0 9-4 9-10zm-750-10c0-5-4-10-10-10-5 0-10 5-10 10 0 6 5 10 10 10 6 0 10-4 10-10zm780-10c0-5-4-10-10-10-5 0-10 5-10 10 0 6 5 10 10 10 6 0 10-4 10-10zm-50-10c0-5-4-10-10-10-5 0-10 5-10 10 0 6 5 10 10 10 6 0 10-4 10-10zm-760-56c0-9-5-14-12-12-18 6-21 28-4 28 9 0 16-7 16-16zm-130 2c0-3-4-8-10-11-5-3-10-1-10 4 0 6 5 11 10 11 6 0 10-2 10-4zm1490-36c0-5-2-10-4-10-3 0-8 5-11 10-3 6-1 10 4 10 6 0 11-4 11-10zm-1287-31c18-20 18-21-5-14-29 9-31 11-23 24 8 14 8 14 28-10zm1777-44c0-8-7-15-15-15-16 0-20 12-8 23 11 12 23 8 23-8zm-574-120c1-14-2-22-7-19-11 6-12 44-1 44 4 0 8-11 8-25zm-351-55c4-20 13-30 25-30 10 0 26-8 35-17 16-16 16-18-4-34-17-14-18-18-6-23 19-7 20-26 1-26-8 0-16-3-19-7-2-5-2-2 0 6s-2 11-12 7c-9-3-13-2-10 4s1 10-4 10c-16 0-13 21 7 43 15 18 15 20 0 14-12-4-18 2-22 29-4 19-11 34-16 34-6 0-10 5-10 10 0 24 29 7 35-20zm70 16c10 4 12 0 8-15-7-27-22-36-36-22-8 8-8 11 2 11 8 0 10 8 7 23-3 12-3 17 0 10s11-10 19-7zm-347-8c-6-18-28-21-28-4 0 9 7 16 16 16s14-5 12-12zm-808-38c0-5-4-10-10-10-5 0-10 5-10 10 0 6 5 10 10 10 6 0 10-4 10-10zm1050-30c0-5-2-10-4-10-3 0-8 5-11 10-3 6-1 10 4 10 6 0 11-4 11-10zm126-96c-8-8-25-14-37-14-21 0-22 1-5 13 10 7 26 14 37 14 17 2 17 0 5-13zm-106-14c0-5-5-10-11-10-5 0-7 5-4 10 3 6 8 10 11 10 2 0 4-4 4-10zm50-15c11-13 10-14-4-9-9 3-16 10-16 15 0 13 6 11 20-6zm217-41c-3-3-12-4-19-1-8 3-5 6 6 6 11 1 17-2 13-5zm-2116-107c-1-12-15-9-19 4-3 6 1 10 8 8 6-3 11-8 11-12zm1969-8c0-5-4-9-10-9-5 0-10 7-10 16 0 8 5 12 10 9 6-3 10-10 10-16zm635-238c3-5 1-12-5-16-5-3-10 1-10 9 0 18 6 21 15 7zm45-5c0-3-4-8-10-11-5-3-10-1-10 4 0 6 5 11 10 11 6 0 10-2 10-4zm-2386-61c-4-8-8-15-10-15s-4 7-4 15 4 15 10 15c5 0 7-7 4-15zm766 0c0-8-7-15-15-15s-15 7-15 15 7 15 15 15 15-7 15-15zm200-155c0-5-4-10-10-10-5 0-10 5-10 10 0 6 5 10 10 10 6 0 10-4 10-10zm1140-140c0-5-5-10-11-10-5 0-7 5-4 10 3 6 8 10 11 10 2 0 4-4 4-10zm-2020-20c0-13-7-20-20-20s-20 7-20 20 7 20 20 20 20-7 20-20zm531-73c-13-13-26-3-16 12 3 6 11 8 17 5 6-4 6-10-1-17zm819-188c0-5-7-9-15-9-15 0-20 12-9 23 8 8 24-1 24-14z"/><path d="m2918 2558c-29-10-31-15-28-60 1-15-9-42-21-59-21-30-22-32-4-45 11-8 24-10 34-4 15 8 42 54 55 93 6 19 36 23 36 5 0-7 5-5 11 5 8 14 4 23-20 47-16 17-31 30-33 29-2 0-15-5-30-11z"/><path d="m2896 2308c6-21 42-57 57-58 16 0 6 32-18 55-30 31-49 33-39 3z"/></g></svg>